<svg width="61.251953" height="45.655884" viewBox="0 0 61.252 45.6559" fill="none" xmlns="http://www.w3.org/2000/svg" xmlns:xlink="http://www.w3.org/1999/xlink">
	<desc>
			Created with Pixso.
	</desc>
	<defs/>
	<path id="polyline" d="M9.13 7.81L2.59 14.05L0.26 22.95L4.46 32.74L13.89 32.94L25.49 33.19L30.62 34.97L38.1 42.09L46.04 37.19L51.18 37.64L57.25 34.08L60.99 27.4L60.05 19.83L52.58 7.81L38.57 0.25L25.49 0.69L9.13 7.81Z" fill="#000000" fill-opacity="0" fill-rule="evenodd"/>
	<path id="polyline" d="M14.27 34.97L9.13 7.81M25.49 0.69L38.57 0.25L52.58 7.81L60.05 19.83L60.99 27.4L57.25 34.08L51.18 37.64L46.04 37.19L38.1 42.09L30.62 34.97L25.49 33.19L4.46 32.74L0.26 22.95L2.59 14.05L9.13 7.81L25.49 0.69Z" stroke="#9D61FF" stroke-opacity="1.000000" stroke-width="0.500000"/>
	<path id="polyline" d="M25.95 0.69L60.05 19.83L53.51 33.63L45.1 30.07L35.76 22.06L30.16 14.05L25.95 0.69Z" fill="#000000" fill-opacity="0" fill-rule="evenodd"/>
	<path id="polyline" d="M0.26 22.95L11 18.05L19.41 9.59L25.95 0.69L60.05 19.83L53.51 33.63L45.1 30.07L35.76 22.06L30.16 14.05L25.95 0.69" stroke="#9D61FF" stroke-opacity="1.000000" stroke-width="0.500000"/>
	<path id="polyline" d="M35.76 22.06L40.43 8.7L52.58 7.81L47.03 21.03L35.76 22.06Z" fill="#000000" fill-opacity="0" fill-rule="evenodd"/>
	<path id="polyline" d="M60.05 19.83L35.76 22.06L40.43 8.7L52.58 7.81L46.97 21.17" stroke="#9D61FF" stroke-opacity="1.000000" stroke-width="0.500000"/>
	<path id="polyline" d="" fill="#000000" fill-opacity="0" fill-rule="nonzero"/>
	<path id="polyline" d="M38.56 0.25L39.97 9.15L46.97 21.17L57.25 34.08" stroke="#9D61FF" stroke-opacity="1.000000" stroke-width="0.500000"/>
	<path id="polyline" d="" fill="#000000" fill-opacity="0" fill-rule="nonzero"/>
	<path id="polyline" d="M45.1 30.07L46.97 21.17L60.99 27.4" stroke="#9D61FF" stroke-opacity="1.000000" stroke-width="0.500000"/>
	<path id="polyline" d="" fill="#000000" fill-opacity="0" fill-rule="nonzero"/>
	<path id="polyline" d="M9.13 7.81L19.41 9.59L39.97 8.7" stroke="#9D61FF" stroke-opacity="1.000000" stroke-width="0.500000"/>
	<path id="polyline" d="" fill="#000000" fill-opacity="0" fill-rule="nonzero"/>
	<path id="polyline" d="M18.94 9.59L30.16 14.05L39.97 8.26" stroke="#9D61FF" stroke-opacity="1.000000" stroke-width="0.500000"/>
	<path id="polyline" d="" fill="#000000" fill-opacity="0" fill-rule="nonzero"/>
	<path id="polyline" d="M18.94 9.59L23.62 17.61L30.16 14.05" stroke="#9D61FF" stroke-opacity="1.000000" stroke-width="0.500000"/>
	<path id="polyline" d="" fill="#000000" fill-opacity="0" fill-rule="nonzero"/>
	<path id="polyline" d="M23.62 17.61L18.01 26.06L11 18.05" stroke="#9D61FF" stroke-opacity="1.000000" stroke-width="0.500000"/>
	<path id="polyline" d="" fill="#000000" fill-opacity="0" fill-rule="nonzero"/>
	<path id="polyline" d="M35.76 22.06L21.75 36.75L18.01 26.06" stroke="#9D61FF" stroke-opacity="1.000000" stroke-width="0.500000"/>
	<path id="polyline" d="" fill="#000000" fill-opacity="0" fill-rule="nonzero"/>
	<path id="polyline" d="M23.61 17.61L31.09 26.96L18.01 26.06" stroke="#9D61FF" stroke-opacity="1.000000" stroke-width="0.500000"/>
	<path id="polyline" d="" fill="#000000" fill-opacity="0" fill-rule="nonzero"/>
	<path id="polyline" d="M31.09 26.96L36.69 34.97L43.7 39.86" stroke="#9D61FF" stroke-opacity="1.000000" stroke-width="0.500000"/>
	<path id="polyline" d="" fill="#000000" fill-opacity="0" fill-rule="nonzero"/>
	<path id="polyline" d="M38.1 42.09L36.7 34.97L45.1 30.07" stroke="#9D61FF" stroke-opacity="1.000000" stroke-width="0.500000"/>
	<line id="line" x1="35.763672" y1="22.063721" x2="36.697266" y2="34.972595" stroke="#9D61FF" stroke-opacity="1.000000" stroke-width="0.500000"/>
	<path id="polyline" d="" fill="#000000" fill-opacity="0" fill-rule="nonzero"/>
	<path id="polyline" d="M46.04 37.19L45.1 30.07L60.99 27.4" stroke="#9D61FF" stroke-opacity="1.000000" stroke-width="0.500000"/>
	<line id="line" x1="45.109375" y1="30.076172" x2="51.183594" y2="37.643494" stroke="#9D61FF" stroke-opacity="1.000000" stroke-width="0.500000"/>
	<path id="polyline" d="" fill="#000000" fill-opacity="0" fill-rule="nonzero"/>
	<path id="polyline" d="M31.09 26.96L30.62 34.97L36.69 34.97" stroke="#9D61FF" stroke-opacity="1.000000" stroke-width="0.500000"/>
	<line id="line" x1="21.750000" y1="36.753235" x2="0.261719" y2="22.954041" stroke="#9D61FF" stroke-opacity="1.000000" stroke-width="0.500000"/>
	<path id="polyline" d="" fill="#000000" fill-opacity="0" fill-rule="nonzero"/>
	<path id="polyline" d="M4.46 32.74L11 18.05L2.59 14.05" stroke="#9D61FF" stroke-opacity="1.000000" stroke-width="0.500000"/>
	<path id="polyline" d="" fill="#000000" fill-opacity="0" fill-rule="nonzero"/>
	<path id="polyline" d="M43.7 39.86L46.5 44.32L38.1 42.09" stroke="#9D61FF" stroke-opacity="1.000000" stroke-width="0.500000"/>
</svg>
